<?xml version="1.0" encoding="utf-8"?>
<svg xmlns:xlink="http://www.w3.org/1999/xlink" viewBox="0 0 40 40" xmlns="http://www.w3.org/2000/svg">
  <rect x="-0.326" y="-0.299" width="40.265" height="40.568"
        style="fill: rgb(54, 54, 54); pointer-events: none; visibility: hidden;" />
  <g transform="matrix(1.247354, 0, 0, 1.247354, 0.584507, 0.788823)" style="filter: none;">
    <path
        d="M 12.825 0.971 C 10.681 0.971 7.804 2.442 5.872 4.971 L 4.27 4.971 C 3.113 4.971 2.45 5.835 1.993 6.749 L 1.382 7.971 L 4.27 7.971 L 5.77 9.471 L 7.27 10.971 L 7.27 13.86 L 8.493 13.249 C 9.407 12.792 10.27 12.129 10.27 10.971 L 10.27 9.37 C 12.799 7.438 14.27 4.561 14.27 2.417 L 14.27 0.971 L 12.825 0.971 Z M 10.27 3.971 C 10.823 3.971 11.27 4.419 11.27 4.971 C 11.27 5.524 10.823 5.971 10.27 5.971 C 9.718 5.971 9.27 5.524 9.27 4.971 C 9.27 4.419 9.718 3.971 10.27 3.971 Z M 3.77 9.971 L 3.27 10.471 C 2.548 11.194 2.27 12.971 2.27 12.971 C 2.27 12.971 3.968 12.773 4.77 11.971 L 5.27 11.471 L 3.77 9.971 Z"
        style="fill: rgb(167, 2, 21);" />
  </g>
  <g transform="matrix(-1.067263, 0, 0, 1.067263, 46.936279, 1.321498)" style="">
    <symbol id="ab" viewBox="0 -3.15 9.3 3.15">
      <path d="m9.3-1.3l-9.3-1.85c0.3 0.3 1.1 0.6 2.4 0.9 1.733 0.467 3.9 1.217 6.5 2.25l0.25-0.95 0.15-0.35z"
            clip-rule="evenodd" fill="#FF8F8F" fill-rule="evenodd" />
    </symbol>
    <symbol id="ac" viewBox="0 -10.05 4.237 10.056">
      <path d="m4.2-0.3c0.133-0.434-0.1-1.267-0.7-2.5l-3.5-7.25 3.85 10.05c0.167 0.033 0.283-0.067 0.35-0.3z"
            clip-rule="evenodd" fill="#FF8F8F" fill-rule="evenodd" />
    </symbol>
    <symbol id="ad" viewBox="0 -7.75 6.45 7.75">
      <polygon points="6.45 -7.75 6.2 -7.65 3.1 -3.8 2.95 -3.7 0 0 5.75 -1.7" clip-rule="evenodd" fill-rule="evenodd" />
    </symbol>
    <symbol id="ae" viewBox="0 -22.15 19.9 22.15">
      <linearGradient id="t" x1="-3324" x2="-3298.2" y1="-9351.3" y2="-9351.3"
                      gradientTransform="matrix(.6312 -.7756 .7756 .6312 9353.9 3323.8)" gradientUnits="userSpaceOnUse">
        <stop stop-color="#FF001D" offset="0" />
        <stop stop-color="#80000E" offset="1" />
      </linearGradient>
      <polygon
          points="11.8 -1.45 17.45 -5.05 17.5 -5.1 19.9 -11.35 19.55 -20 14 -22.15 7.4 -19.75 4.3 -15.9 4.15 -15.8 1.05 -11.9 0 -5 3.3 0"
          clip-rule="evenodd" fill="url(#t)" fill-rule="evenodd" />
    </symbol>
    <symbol id="af" viewBox="0 -22.1 19.5 22.1">
      <linearGradient id="u" x1="1189" x2="1205.3" y1="1024.4" y2="1024.4"
                      gradientTransform="matrix(.9907 .1361 -.1361 .9907 -1036.8 -1188.7)"
                      gradientUnits="userSpaceOnUse">
        <stop stop-color="#FF031F" offset="0" />
        <stop stop-color="#80000E" offset="1" />
      </linearGradient>
      <polygon points="6.9 -13.8 0 -5 3.25 0 3.55 -0.05 7.2 -13.3 19.5 -19.95 19.5 -20 14.2 -22.1" clip-rule="evenodd"
               fill="url(#u)" fill-rule="evenodd" />
    </symbol>
    <symbol id="ag" viewBox="0 -4.8 4.8 4.8">
      <polygon points="2.4 -3.3 0 -4.8 1.5 -2.4 0 0 2.4 -1.5 4.8 0 3.3 -2.4 4.8 -4.8" clip-rule="evenodd" fill="#FFE0E3"
               fill-rule="evenodd" />
    </symbol>
    <symbol id="ah" viewBox="0 -14.9 7.3 14.9">
      <polygon points="0 0 1.8 -7.15 7.3 -14.9 1.55 -8 1.15 -13.85" clip-rule="evenodd" fill="#FF8F8F"
               fill-rule="evenodd" />
    </symbol>
    <symbol id="ai" viewBox="0 -12.95 14.7 12.95">
      <polygon points="0 0 8.5 -1.45 14.2 -5.1 8.7 -2.1 7.4 -3 8.8 -9.4 14.7 -12.95 8.1 -9.75 6.65 -3.05"
               clip-rule="evenodd" fill="#FF8F8F" fill-rule="evenodd" />
    </symbol>
    <symbol id="aj" viewBox="0 -11.9 5.7 11.9">
      <linearGradient id="v" x1="7.1104" x2=".4344" y1="-5.3364" y2="-6.2546" gradientUnits="userSpaceOnUse">
        <stop stop-color="#4A0109" offset="0" />
        <stop stop-color="#80000E" offset="1" />
      </linearGradient>
      <polygon points="0 -11.9 4.25 -1.65 5.3 0 5.7 -1.15 5.4 -9.75" clip-rule="evenodd" fill="url(#v)"
               fill-rule="evenodd" />
    </symbol>
    <symbol id="ak" viewBox="0 -4.85 12.75 4.85">
      <linearGradient id="w" x1="1191.4" x2="1198.2" y1="1034.6" y2="1034.6"
                      gradientTransform="matrix(.9907 .1363 -.1363 .9907 -1037.5 -1189.7)"
                      gradientUnits="userSpaceOnUse">
        <stop stop-color="#FF031F" offset="0" />
        <stop stop-color="#80000E" offset="1" />
      </linearGradient>
      <polygon points="0 -4.85 3.2 0 11.7 -1.45 12.75 -2.1 10.9 -2.75" clip-rule="evenodd" fill="url(#w)"
               fill-rule="evenodd" />
    </symbol>
    <symbol id="al" viewBox="0 -10.05 10.65 10.05">
      <linearGradient id="x" x1="1192.8" x2="1201.9" y1="1033.1" y2="1033.1"
                      gradientTransform="matrix(.9906 .1365 -.1365 .9906 -1039.6 -1192.4)"
                      gradientUnits="userSpaceOnUse">
        <stop stop-color="#FF031F" offset="0" />
        <stop stop-color="#80000E" offset="1" />
      </linearGradient>
      <polygon points="0 -2.05 10.65 0 6.6 -10.05 6.35 -9.95 3.25 -6.1 3.1 -6 0 -2.1" clip-rule="evenodd" fill="url(#x)"
               fill-rule="evenodd" />
    </symbol>
    <g clip-rule="evenodd" fill-rule="evenodd">
      <linearGradient id="y" x1="-24.056" x2="-18.55" y1="28.415" y2="28.415"
                      gradientTransform="matrix(.7335 -.8883 .8883 .7335 1.7493 -6.7996)"
                      gradientUnits="userSpaceOnUse">
        <stop stop-color="#FF031F" offset="0" />
        <stop stop-color="#B20115" offset="1" />
      </linearGradient>
      <polygon points="12.463 8.809 25.653 17.218 31.183 31.791 24.963 34.269 10.102 30.351 8.777 14.397"
               fill="url(#y)" />
      <linearGradient id="z" x1="-23.845" x2="-18.34" y1="33.557" y2="33.557"
                      gradientTransform="matrix(.7322 -.8893 .8893 .7322 1.7493 -6.7992)"
                      gradientUnits="userSpaceOnUse">
        <stop stop-color="#FF031F" offset="0" />
        <stop stop-color="#8F0111" offset="1" />
      </linearGradient>
      <polygon points="10.102 30.351 25.653 17.277 31.183 31.791 24.963 34.269" fill="url(#z)" />
    </g>
    <polygon
        points="28.764 14.626 28.821 14.685 31.586 21.885 31.183 31.849 24.789 34.325 17.186 31.561 13.615 27.126 13.442 27.01 9.871 22.518 8.662 14.569 12.463 8.809 22.255 10.479"
        clip-rule="evenodd" fill-rule="evenodd" fill="#940011" />
    <polygon
        points="13.615 8.982 23.694 13.936 28.245 19.581 31.183 31.561 31.183 31.849 24.789 34.325 17.186 31.561 13.615 27.126 13.442 27.01 9.871 22.518 8.662 14.569 12.463 8.809"
        clip-rule="evenodd" fill-rule="evenodd" fill="#400007" />
    <use transform="matrix(1.1519999504089355, 0, 0, -1.1519999504089355, 8.799799919128418, 34.30929946899414)"
         width="19.5" height="22.1" enable-background="new" opacity=".4414" xlink:href="#af" />
    <use transform="matrix(1.1519999504089355, 0, 0, -1.1519999504089355, 8.700200080871582, 34.36689758300781)"
         width="19.9" height="22.15" enable-background="new" opacity=".5195" xlink:href="#ae" />
    <use transform="matrix(1.1519999504089355, 0, 0, -1.1519999504089355, 10.149999618530273, 31.628000259399414)"
         width="6.45" height="7.75" enable-background="new" opacity=".6094" xlink:href="#ad" />
    <use transform="matrix(1.1519999504089355, 0, 0, -1.1519999504089355, 9.899900436401367, 31.677600860595703)"
         width="10.65" height="10.05" enable-background="new" opacity=".7891" xlink:href="#al" />
    <use transform="matrix(1.1519999504089355, 0, 0, -1.1519999504089355, 8.850099563598633, 14.437298774719238)"
         width="12.75" height="4.85" enable-background="new" opacity=".5781" xlink:href="#ak" />
    <use transform="matrix(1.1519999504089355, 0, 0, -1.1519999504089355, 25.049999237060547, 34.25879669189453)"
         width="5.7" height="11.9" enable-background="new" opacity=".8281" xlink:href="#aj" />
    <linearGradient id="aa" x1="14.402" x2="19.525" y1="23.4" y2="23.4"
                    gradientTransform="matrix(1.1413 -.1567 .1567 1.1413 1.7498 -6.7997)"
                    gradientUnits="userSpaceOnUse">
      <stop stop-color="#FF031F" offset="0" />
      <stop stop-color="#B20115" offset="1" />
    </linearGradient>
    <polygon
        points="28.764 14.626 28.821 14.685 31.586 21.885 31.586 21.999 29.397 23.728 22.14 20.156 22.14 20.098 20.124 12.323 22.255 10.479"
        clip-rule="evenodd" fill-rule="evenodd" fill="url(#aa)" />
    <use transform="matrix(1.1519999504089355, 0, 0, -1.1519999504089355, 12.5, 23.76849937438965)" width="14.7"
         height="12.95" enable-background="new" opacity=".7305" xlink:href="#ai" />
    <use transform="matrix(1.1519999504089355, 0, 0, -1.1519999504089355, 8.850099563598633, 31.514799118041992)"
         width="7.3" height="14.9" enable-background="new" opacity=".7305" xlink:href="#ah" />
    <use transform="matrix(1.1519999504089355, 0, 0, -1.1519999504089355, 18.299999237060547, 14.4798002243042)"
         width="4.8" height="4.8" enable-background="new" opacity=".5117" xlink:href="#ag" />
    <polygon
        points="21.045 12.092 19.951 12.726 20.642 11.632 19.951 10.595 21.045 11.229 22.14 10.595 21.448 11.632 22.14 12.726"
        clip-rule="evenodd" fill-rule="evenodd" fill="#fff" />
    <use transform="matrix(1.1519999504089355, 0, 0, -1.1519999504089355, 17.549999237060547, 31.677600860595703)"
         width="4.237" height="10.056" enable-background="new" opacity=".5" xlink:href="#ac" />
    <use transform="matrix(1.1519999504089355, 0, 0, -1.1519999504089355, 11.100000381469727, 22.17879867553711)"
         width="9.3" height="3.15" enable-background="new" opacity=".5" xlink:href="#ab" />
  </g>
</svg>
